<svg xmlns="http://www.w3.org/2000/svg" width="96" height="96" viewBox="0 0 96 96" role="img" aria-label="Boardy app icon">
  <rect width="96" height="96" rx="24" fill="#F2F3F6"></rect>
  <rect x="0.5" y="0.5" width="95" height="95" rx="23.5" fill="none" stroke="rgba(22,24,29,0.07)"></rect>
  <g transform="translate(10.56 10.56) scale(1.1700)">
    <rect x="14" y="14" width="11" height="36" rx="5.5" fill="#2A6FDB"></rect>
    <path d="M33 14 h9 a8 8 0 0 1 0 16 h-9 a4 4 0 0 1 -4 -4 v-8 a4 4 0 0 1 4 -4 Z" fill="#2A6FDB"></path>
    <path d="M33 34 h9 a8 8 0 0 1 0 16 h-9 a4 4 0 0 1 -4 -4 v-8 a4 4 0 0 1 4 -4 Z" fill="#2A6FDB"></path>
  </g>
</svg>